# xmcd CD database file
#
# Track frame offsets:
#	182
#	13850
#	45592
#	60265
#	84190
#	109142
#	123137
#	144027
#	157445
#	175237
#	197920
#	229462
#
# Disc length: 3274 seconds
#
# Revision: 0
# Processed by: cddbd v1.5.1PL0 Copyright (c) Steve Scherf et al.
# Submitted via: CDex 1.51
#
DISCID=9a0cc80c
DTITLE=Compilation guitare versions originales - Guitare Story 1
DYEAR=1994
DGENRE=Blues
TTITLE0=Stevie Ray Vaughan - Pipeline
TTITLE1=Blue Oyster Club - Screamin' Diz Busters
TTITLE2=Joe Satriani - Satch Boogie
TTITLE3=Mick Taylor - Giddy-Up
TTITLE4=Mike Bloomfield And Al Cooper - Mary Ann
TTITLE5=Chickenshack - San-Ho-Zay
TTITLE6=Joe Perry - I've Got The Rock 'n' Rolls Again
TTITLE7=Fleetwood Mac - I Loved Another Woman
TTITLE8=Tommy Bolin - Homeward Strut
TTITLE9=Santana - Europa (Earth's Cry Heaven's Smile)
TTITLE10=Gary Moore - Sail Across The Mountain
TTITLE11=Jeff Beck - The Final Peace
EXTD=YEAR: 1994
EXTT0=
EXTT1=
EXTT2=
EXTT3=
EXTT4=
EXTT5=
EXTT6=
EXTT7=
EXTT8=
EXTT9=
EXTT10=
EXTT11=
PLAYORDER=
